<svg xmlns="http://www.w3.org/2000/svg" xmlns:xlink="http://www.w3.org/1999/xlink" width="500" zoomAndPan="magnify" viewBox="0 0 375 374.999991" height="500" preserveAspectRatio="xMidYMid meet" version="1.0"><defs><clipPath id="092590961c"><path d="M 37.5 17.386719 L 329.25 17.386719 L 329.25 357.886719 L 37.5 357.886719 Z M 37.5 17.386719 " clip-rule="nonzero"/></clipPath></defs><g clip-path="url(#092590961c)"><path fill="#040606" d="M 225.757812 247.734375 C 225.667969 254.25 225.445312 259.203125 225.089844 262.589844 C 224.730469 265.980469 224.105469 269.238281 223.214844 272.359375 C 222.324219 275.484375 221.121094 278.699219 219.605469 282 C 218.089844 285.300781 216.261719 288.554688 214.121094 291.769531 C 213.050781 293.375 211.980469 294.980469 210.914062 296.585938 C 210.554688 294.714844 210.199219 292.839844 209.839844 290.964844 C 209.128906 287.21875 208.640625 284.808594 208.367188 283.738281 C 208.101562 282.667969 207.835938 282 207.570312 281.730469 C 207.433594 281.597656 207.300781 281.464844 207.167969 281.328125 C 204.625 284.453125 202.085938 287.578125 199.542969 290.699219 C 194.460938 296.945312 191.296875 301.046875 190.050781 303.011719 C 188.800781 304.976562 187.328125 307.828125 185.632812 311.578125 C 184.789062 313.449219 183.941406 315.324219 183.09375 317.199219 C 182.199219 315.324219 181.3125 313.449219 180.417969 311.578125 C 178.636719 307.828125 177.121094 304.976562 175.871094 303.011719 C 174.625 301.046875 171.457031 296.898438 166.375 290.566406 C 163.835938 287.394531 161.292969 284.226562 158.753906 281.0625 C 158.617188 281.238281 158.484375 281.417969 158.351562 281.597656 C 158.082031 281.953125 157.371094 284.453125 156.210938 289.089844 C 155.054688 293.734375 154.339844 296.097656 154.074219 296.1875 C 153.808594 296.273438 153.359375 295.875 152.734375 294.980469 C 152.109375 294.085938 150.863281 291.945312 148.992188 288.554688 C 147.117188 285.167969 145.421875 281.464844 143.910156 277.449219 C 142.394531 273.433594 141.234375 269.550781 140.429688 265.804688 C 139.628906 262.054688 139.09375 257.234375 138.824219 251.347656 C 138.558594 245.460938 138.289062 242.46875 138.027344 242.382812 C 137.757812 242.289062 137.578125 242.335938 137.488281 242.515625 C 137.402344 242.691406 136.910156 245.414062 136.015625 250.679688 C 135.125 255.941406 134.546875 260.3125 134.28125 263.796875 C 134.007812 267.273438 133.875 270.886719 133.875 274.636719 C 133.875 278.382812 134.324219 283.46875 135.214844 289.894531 C 136.105469 296.320312 137.21875 301.765625 138.558594 306.226562 C 139.894531 310.6875 140.878906 313.585938 141.5 314.921875 C 142.125 316.265625 142.925781 317.332031 143.910156 318.132812 C 144.890625 318.941406 146.402344 320.636719 148.453125 323.222656 C 150.503906 325.808594 152.867188 328.53125 155.542969 331.386719 C 158.21875 334.242188 159.6875 335.671875 159.957031 335.671875 C 160.222656 335.671875 160.714844 333.035156 161.425781 327.773438 C 161.785156 325.140625 162.140625 322.507812 162.5 319.878906 C 162.675781 319.917969 162.855469 319.964844 163.03125 320.011719 C 163.390625 320.097656 164.238281 321.394531 165.574219 323.890625 C 166.914062 326.390625 168.871094 330.628906 171.457031 336.609375 C 174.046875 342.585938 176.582031 347.625 179.082031 351.730469 C 180.328125 353.785156 181.578125 355.835938 182.824219 357.886719 C 182.960938 357.796875 183.09375 357.710938 183.226562 357.621094 C 183.496094 357.445312 184.96875 355.035156 187.640625 350.390625 C 190.316406 345.753906 192.546875 341.425781 194.328125 337.410156 C 196.109375 333.394531 197.9375 329.601562 199.808594 326.03125 C 201.683594 322.460938 202.796875 320.546875 203.152344 320.277344 C 203.332031 320.144531 203.511719 320.011719 203.691406 319.878906 C 203.734375 320.050781 203.777344 320.234375 203.824219 320.410156 C 203.910156 320.769531 204.089844 323.085938 204.359375 327.371094 C 204.625 331.652344 204.894531 334.109375 205.160156 334.730469 C 205.292969 335.046875 205.429688 335.355469 205.5625 335.671875 C 206.320312 334.957031 207.078125 334.242188 207.835938 333.527344 C 209.351562 332.101562 212.070312 329.113281 215.996094 324.558594 C 219.914062 320.011719 222.324219 316.839844 223.214844 315.058594 C 224.105469 313.273438 225.355469 309.75 226.960938 304.484375 C 228.566406 299.21875 229.769531 293.820312 230.570312 288.289062 C 231.371094 282.757812 231.777344 277.941406 231.777344 273.832031 C 231.777344 269.726562 231.597656 265.980469 231.238281 262.589844 C 230.882812 259.203125 230.394531 255.722656 229.769531 252.152344 C 229.144531 248.582031 228.519531 245.59375 227.898438 243.183594 C 227.273438 240.773438 226.78125 239.300781 226.425781 238.765625 C 226.246094 238.5 226.070312 238.230469 225.890625 237.960938 C 225.84375 241.222656 225.800781 244.476562 225.757812 247.734375 Z M 182.023438 221.636719 C 183.453125 221.636719 185.679688 222.078125 188.710938 222.972656 C 191.742188 223.867188 194.996094 224.625 198.476562 225.25 C 201.949219 225.871094 203.734375 227.164062 203.824219 229.132812 C 203.910156 231.09375 203.644531 232.875 203.019531 234.484375 C 202.394531 236.089844 201.816406 237.203125 201.28125 237.828125 C 200.75 238.453125 199.855469 239.171875 198.609375 239.972656 C 197.359375 240.773438 195.933594 241.441406 194.328125 241.980469 C 192.722656 242.515625 190.984375 242.914062 189.109375 243.183594 C 187.238281 243.453125 184.566406 243.542969 181.085938 243.453125 C 177.613281 243.363281 174.9375 243.09375 173.0625 242.648438 C 171.191406 242.199219 169.453125 241.574219 167.847656 240.773438 C 166.242188 239.972656 165.082031 239.214844 164.371094 238.5 C 163.65625 237.785156 162.941406 236.757812 162.230469 235.421875 C 161.519531 234.082031 161.070312 232.207031 160.894531 229.796875 C 160.714844 227.390625 163.835938 225.429688 170.253906 223.910156 C 176.675781 222.394531 180.597656 221.636719 182.023438 221.636719 Z M 221.207031 135.035156 C 218.089844 135.839844 216.039062 136.464844 215.058594 136.910156 C 214.074219 137.355469 212.605469 138.652344 210.644531 140.792969 C 209.664062 141.863281 208.683594 142.933594 207.703125 144.007812 C 209.933594 143.691406 212.160156 143.378906 214.390625 143.066406 C 218.847656 142.445312 221.96875 140.925781 223.75 138.519531 C 225.53125 136.109375 226.46875 134.726562 226.558594 134.367188 C 226.601562 134.191406 226.648438 134.011719 226.695312 133.832031 C 226.558594 133.832031 226.425781 133.832031 226.292969 133.832031 C 226.023438 133.832031 224.332031 134.234375 221.207031 135.035156 Z M 139.761719 136.375 C 140.832031 138.25 141.769531 139.632812 142.570312 140.523438 C 143.375 141.417969 144.53125 142.085938 146.046875 142.53125 C 147.5625 142.980469 149.835938 143.335938 152.867188 143.601562 C 154.382812 143.738281 155.902344 143.875 157.417969 144.007812 C 156.34375 142.890625 155.277344 141.773438 154.207031 140.660156 C 152.066406 138.429688 148.855469 136.6875 144.578125 135.4375 C 142.4375 134.816406 140.296875 134.191406 138.160156 133.566406 C 138.691406 134.5 139.226562 135.4375 139.761719 136.375 Z M 133.210938 123.527344 C 133.117188 123.792969 133.296875 124.328125 133.742188 125.132812 C 134.191406 125.9375 135.214844 126.917969 136.820312 128.078125 C 138.425781 129.238281 140.03125 130.039062 141.636719 130.488281 C 143.238281 130.929688 145.824219 131.378906 149.390625 131.824219 C 152.957031 132.269531 155.007812 132.628906 155.542969 132.894531 C 156.078125 133.164062 156.703125 133.921875 157.417969 135.171875 C 158.128906 136.417969 158.664062 138.070312 159.023438 140.125 C 159.378906 142.175781 159.554688 144.273438 159.554688 146.414062 C 159.554688 148.554688 159.332031 150.296875 158.890625 151.632812 C 158.441406 152.972656 156.390625 155.691406 152.734375 159.796875 C 149.078125 163.902344 145.691406 168.230469 142.570312 172.785156 C 139.449219 177.332031 137.53125 179.382812 136.820312 178.9375 C 136.105469 178.492188 134.769531 177.242188 132.808594 175.1875 C 130.847656 173.136719 129.285156 171.265625 128.128906 169.570312 C 126.96875 167.871094 125.808594 165.910156 124.648438 163.679688 C 123.492188 161.449219 122.511719 159.21875 121.707031 156.988281 C 120.90625 154.757812 120.324219 152.746094 119.96875 150.964844 C 119.613281 149.179688 119.433594 146.144531 119.433594 141.863281 C 119.433594 139.71875 119.433594 137.578125 119.433594 135.4375 C 118.945312 136.242188 118.453125 137.042969 117.960938 137.847656 C 116.980469 139.453125 115.957031 141.640625 114.886719 144.40625 C 113.816406 147.171875 113.148438 149 112.878906 149.894531 C 112.613281 150.785156 112.523438 152.078125 112.613281 153.773438 C 112.703125 155.472656 113.058594 157.433594 113.683594 159.664062 C 114.308594 161.894531 115.066406 163.945312 115.957031 165.820312 C 116.847656 167.695312 118.09375 169.835938 119.699219 172.246094 C 121.304688 174.652344 123.933594 177.867188 127.59375 181.882812 C 131.246094 185.894531 132.941406 190.359375 132.675781 195.265625 C 132.40625 200.175781 132.449219 203.789062 132.808594 206.109375 C 133.164062 208.425781 133.699219 210.390625 134.414062 211.996094 C 135.125 213.605469 135.972656 215.078125 136.953125 216.414062 C 137.933594 217.753906 138.914062 218.867188 139.894531 219.761719 C 140.878906 220.652344 142.304688 221.726562 144.175781 222.972656 C 146.046875 224.21875 147.742188 225.160156 149.257812 225.785156 C 150.773438 226.40625 151.621094 227.96875 151.800781 230.46875 C 151.976562 232.96875 152.511719 235.421875 153.402344 237.828125 C 154.296875 240.238281 155.367188 242.199219 156.613281 243.714844 C 157.859375 245.234375 159.378906 246.574219 161.160156 247.734375 C 162.941406 248.894531 165.484375 249.964844 168.78125 250.945312 C 172.082031 251.929688 175.734375 252.507812 179.753906 252.6875 C 183.761719 252.863281 187.417969 252.6875 190.714844 252.152344 C 194.015625 251.613281 196.914062 250.8125 199.410156 249.742188 C 201.90625 248.671875 203.910156 247.511719 205.429688 246.261719 C 206.945312 245.015625 208.191406 243.628906 209.175781 242.113281 C 210.15625 240.597656 210.957031 238.855469 211.578125 236.894531 C 212.203125 234.925781 212.605469 232.742188 212.785156 230.332031 C 212.960938 227.925781 214.609375 225.871094 217.734375 224.179688 C 220.855469 222.484375 223.257812 220.832031 224.953125 219.226562 C 226.648438 217.617188 227.851562 216.28125 228.566406 215.210938 C 229.277344 214.136719 230.039062 212.355469 230.835938 209.855469 C 231.644531 207.359375 231.996094 203.121094 231.90625 197.140625 C 231.816406 191.164062 233.871094 185.941406 238.0625 181.480469 C 242.25 177.019531 245.371094 173.136719 247.421875 169.835938 C 249.472656 166.535156 250.855469 163.8125 251.566406 161.671875 C 252.28125 159.53125 252.730469 157.523438 252.90625 155.648438 C 253.082031 153.773438 252.996094 152.125 252.640625 150.695312 C 252.28125 149.269531 251.390625 146.859375 249.960938 143.46875 C 248.535156 140.078125 247.601562 138.027344 247.15625 137.3125 C 246.933594 136.953125 246.707031 136.601562 246.484375 136.242188 C 246.394531 136.332031 246.308594 136.417969 246.21875 136.511719 C 246.042969 136.6875 245.996094 138.117188 246.085938 140.792969 C 246.175781 143.46875 246.085938 146.015625 245.816406 148.417969 C 245.550781 150.832031 245.015625 153.328125 244.210938 155.914062 C 243.410156 158.503906 242.472656 160.914062 241.402344 163.144531 C 240.335938 165.375 238.996094 167.605469 237.390625 169.835938 C 235.785156 172.066406 234.046875 174.078125 232.175781 175.859375 C 230.304688 177.644531 228.96875 178.714844 228.164062 179.074219 C 227.363281 179.429688 225.222656 177.109375 221.746094 172.109375 C 218.265625 167.113281 214.832031 162.652344 211.445312 158.726562 C 208.058594 154.800781 206.230469 152.167969 205.964844 150.832031 C 205.695312 149.492188 205.605469 147.484375 205.695312 144.808594 C 205.785156 142.128906 206.003906 139.945312 206.363281 138.25 C 206.722656 136.554688 207.300781 135.214844 208.101562 134.234375 C 208.902344 133.253906 211.3125 132.492188 215.324219 131.957031 C 219.339844 131.421875 222.234375 130.890625 224.015625 130.355469 C 225.800781 129.816406 227.40625 128.925781 228.832031 127.675781 C 230.261719 126.425781 231.152344 125.402344 231.507812 124.597656 C 231.683594 124.195312 231.863281 123.792969 232.042969 123.390625 C 229.992188 123.839844 227.941406 124.285156 225.890625 124.730469 C 221.785156 125.625 217.867188 126.203125 214.121094 126.46875 C 210.375 126.738281 207.96875 127.09375 206.898438 127.542969 C 205.828125 127.988281 204.980469 128.523438 204.359375 129.148438 C 203.734375 129.773438 203.199219 130.84375 202.753906 132.359375 C 202.304688 133.875 202.21875 137.847656 202.484375 144.273438 C 202.753906 150.695312 203.242188 154.980469 203.957031 157.121094 C 204.667969 159.261719 205.382812 161.003906 206.097656 162.339844 C 206.808594 163.679688 208.59375 166.179688 211.445312 169.835938 C 214.300781 173.496094 216.753906 177.152344 218.800781 180.8125 C 220.855469 184.46875 222.101562 187.058594 222.546875 188.574219 C 222.992188 190.09375 223.347656 192.230469 223.617188 195 C 223.882812 197.765625 223.929688 200.21875 223.75 202.363281 C 223.574219 204.503906 223.257812 206.152344 222.8125 207.3125 C 222.367188 208.472656 221.519531 209.765625 220.273438 211.195312 C 219.023438 212.621094 217.910156 213.695312 216.929688 214.40625 C 215.949219 215.121094 214.609375 215.878906 212.917969 216.683594 C 211.222656 217.484375 209.53125 218.109375 207.835938 218.554688 C 206.140625 219.003906 204.582031 219.226562 203.152344 219.226562 C 201.726562 219.226562 200.167969 219.046875 198.476562 218.691406 C 196.78125 218.332031 194.910156 217.796875 192.855469 217.082031 C 190.808594 216.371094 189.15625 215.65625 187.90625 214.941406 C 186.660156 214.230469 185.898438 213.695312 185.632812 213.335938 C 185.367188 212.980469 185.101562 212.085938 184.832031 210.660156 C 184.566406 209.230469 184.429688 207.625 184.429688 205.839844 C 184.429688 204.054688 184.566406 202.671875 184.832031 201.691406 C 185.101562 200.710938 186.035156 199.636719 187.640625 198.480469 C 189.246094 197.320312 192.1875 195.890625 196.46875 194.199219 C 200.75 192.5 203.332031 191.25 204.226562 190.449219 C 205.117188 189.644531 206.1875 187.90625 207.433594 185.226562 C 208.683594 182.550781 209.398438 180.8125 209.574219 180.007812 C 209.75 179.207031 209.839844 178.402344 209.839844 177.601562 C 209.839844 176.796875 209.75 176.304688 209.574219 176.128906 C 209.398438 175.949219 209.128906 175.859375 208.769531 175.859375 C 208.414062 175.859375 207.523438 176.304688 206.097656 177.199219 C 204.667969 178.089844 203.289062 178.804688 201.949219 179.339844 C 200.613281 179.875 198.203125 180.277344 194.730469 180.542969 C 191.25 180.8125 187.195312 180.945312 182.558594 180.945312 C 177.921875 180.945312 174.089844 180.855469 171.058594 180.679688 C 168.023438 180.5 165.886719 180.277344 164.636719 180.007812 C 163.390625 179.742188 162.273438 179.382812 161.292969 178.9375 C 160.3125 178.492188 159.464844 177.953125 158.753906 177.328125 C 158.039062 176.707031 157.238281 176.261719 156.34375 175.996094 C 155.902344 175.859375 155.453125 175.726562 155.007812 175.59375 C 155.007812 176.351562 155.007812 177.109375 155.007812 177.867188 C 155.007812 179.382812 155.632812 181.613281 156.878906 184.558594 C 158.128906 187.503906 159.289062 189.46875 160.359375 190.449219 C 161.425781 191.429688 163.835938 192.589844 167.582031 193.925781 C 171.324219 195.265625 173.867188 196.339844 175.203125 197.140625 C 176.542969 197.945312 177.613281 198.746094 178.414062 199.550781 C 179.214844 200.355469 179.707031 201.246094 179.882812 202.230469 C 180.058594 203.207031 180.105469 204.992188 180.015625 207.582031 C 179.929688 210.167969 179.753906 211.773438 179.480469 212.402344 C 179.214844 213.023438 178.859375 213.511719 178.414062 213.871094 C 177.964844 214.230469 176.140625 215.03125 172.929688 216.28125 C 169.71875 217.53125 167.175781 218.332031 165.308594 218.691406 C 163.433594 219.046875 161.875 219.226562 160.625 219.226562 C 159.378906 219.226562 158.128906 219.089844 156.878906 218.824219 C 155.632812 218.554688 154.117188 218.019531 152.335938 217.21875 C 150.550781 216.414062 148.8125 215.300781 147.117188 213.871094 C 145.421875 212.445312 144.039062 210.703125 142.972656 208.652344 C 141.902344 206.597656 141.277344 203.964844 141.097656 200.753906 C 140.921875 197.542969 141.054688 194.640625 141.5 192.054688 C 141.945312 189.46875 142.75 186.925781 143.910156 184.425781 C 145.066406 181.925781 146.269531 179.652344 147.519531 177.601562 C 148.765625 175.546875 150.730469 172.824219 153.402344 169.433594 C 156.078125 166.046875 158.128906 162.832031 159.554688 159.796875 C 160.984375 156.765625 161.960938 153.152344 162.5 148.957031 C 163.03125 144.761719 163.257812 140.972656 163.167969 137.578125 C 163.078125 134.191406 162.632812 131.871094 161.828125 130.621094 C 161.027344 129.371094 160.089844 128.480469 159.023438 127.945312 C 157.949219 127.410156 155.453125 126.960938 151.53125 126.605469 C 147.609375 126.246094 143.597656 125.578125 139.496094 124.597656 C 135.390625 123.617188 133.296875 123.257812 133.210938 123.527344 Z M 250.367188 66.105469 C 251.34375 66.105469 251.972656 66.328125 252.234375 66.777344 C 252.507812 67.222656 252.640625 69.097656 252.640625 72.398438 C 252.640625 75.703125 252.414062 78.152344 251.972656 79.761719 C 251.523438 81.363281 250.941406 82.925781 250.230469 84.445312 C 249.519531 85.960938 248.847656 87.210938 248.226562 88.191406 C 247.601562 89.171875 246.800781 90.066406 245.816406 90.871094 C 244.835938 91.671875 243.453125 91.179688 241.671875 89.394531 C 239.886719 87.609375 236.945312 85.246094 232.84375 82.300781 C 228.742188 79.355469 226.695312 77.792969 226.695312 77.617188 C 226.695312 77.4375 228.121094 76.277344 230.972656 74.136719 C 233.824219 71.996094 236.367188 70.433594 238.597656 69.453125 C 240.824219 68.472656 243.097656 67.671875 245.417969 67.046875 C 247.730469 66.421875 249.382812 66.105469 250.367188 66.105469 Z M 116.222656 66.375 C 117.828125 66.554688 119.792969 67.046875 122.109375 67.847656 C 124.425781 68.648438 126.699219 69.628906 128.929688 70.792969 C 131.15625 71.949219 133.386719 73.292969 135.613281 74.808594 C 136.730469 75.566406 137.84375 76.324219 138.957031 77.082031 C 136.507812 79.136719 134.054688 81.1875 131.605469 83.238281 C 126.699219 87.34375 123.667969 89.753906 122.511719 90.46875 C 121.351562 91.179688 120.101562 90.644531 118.765625 88.859375 C 117.429688 87.074219 116.269531 84.980469 115.289062 82.570312 C 114.308594 80.164062 113.683594 77.394531 113.414062 74.273438 C 113.148438 71.148438 113.148438 69.007812 113.414062 67.847656 C 113.683594 66.6875 114.617188 66.195312 116.222656 66.375 Z M 243.675781 58.074219 C 241.09375 58.789062 238.90625 59.636719 237.125 60.621094 C 235.34375 61.601562 233.066406 63.296875 230.304688 65.703125 C 227.539062 68.113281 225.621094 70.078125 224.554688 71.59375 C 223.484375 73.113281 222.191406 73.511719 220.671875 72.800781 C 219.15625 72.085938 218 71.730469 217.199219 71.730469 C 216.394531 71.730469 214.832031 72.039062 212.515625 72.667969 C 210.199219 73.292969 207.210938 74.40625 203.554688 76.011719 C 199.898438 77.617188 196.78125 79.269531 194.195312 80.964844 C 191.605469 82.660156 189.78125 84.085938 188.710938 85.246094 C 187.640625 86.410156 186.929688 87.523438 186.570312 88.59375 C 186.394531 89.128906 186.214844 89.664062 186.035156 90.199219 C 186.214844 90.246094 186.394531 90.289062 186.570312 90.332031 C 186.929688 90.421875 188.128906 89.929688 190.183594 88.859375 C 192.230469 87.792969 194.730469 86.71875 197.671875 85.648438 C 200.613281 84.578125 204.132812 83.550781 208.234375 82.570312 C 212.335938 81.589844 215.058594 81.054688 216.394531 80.964844 C 217.734375 80.875 226.914062 87.300781 243.945312 100.238281 C 260.972656 113.175781 272.386719 121.5625 278.183594 125.402344 C 283.976562 129.238281 287.992188 131.734375 290.21875 132.894531 C 292.445312 134.054688 294.230469 134.816406 295.566406 135.171875 C 296.90625 135.527344 297.574219 135.792969 297.574219 135.976562 C 297.574219 136.0625 297.574219 136.152344 297.574219 136.242188 C 296.726562 136.242188 295.878906 136.242188 295.03125 136.242188 C 293.339844 136.242188 290.085938 135.976562 285.269531 135.4375 C 280.457031 134.902344 274.792969 133.832031 268.285156 132.226562 C 261.777344 130.621094 257.183594 129.328125 254.511719 128.347656 C 251.835938 127.363281 249.652344 126.425781 247.957031 125.535156 C 246.265625 124.644531 245.058594 124.152344 244.347656 124.0625 C 243.988281 124.019531 243.632812 123.972656 243.277344 123.925781 C 243.277344 124.152344 243.277344 124.375 243.277344 124.597656 C 243.277344 125.042969 244.570312 126.292969 247.15625 128.347656 C 249.742188 130.398438 253.21875 132.628906 257.585938 135.035156 C 261.957031 137.445312 266.414062 140.125 270.957031 143.066406 C 275.507812 146.015625 279.742188 149 283.667969 152.035156 C 287.585938 155.070312 290.664062 157.613281 292.894531 159.664062 C 295.121094 161.71875 297.128906 163.902344 298.910156 166.222656 C 300.695312 168.542969 302.300781 171.042969 303.726562 173.71875 C 305.152344 176.394531 306.625 179.515625 308.140625 183.085938 C 309.65625 186.65625 310.992188 190.269531 312.148438 193.925781 C 312.730469 195.757812 313.308594 197.585938 313.890625 199.417969 C 311.214844 197.453125 308.539062 195.492188 305.867188 193.527344 C 300.515625 189.601562 297.261719 187.324219 296.101562 186.703125 C 294.945312 186.078125 293.960938 185.675781 293.160156 185.496094 C 292.757812 185.40625 292.359375 185.316406 291.957031 185.226562 C 292.003906 189.199219 292.046875 193.167969 292.09375 197.140625 C 292.179688 205.082031 292.046875 210.570312 291.691406 213.605469 C 291.332031 216.640625 290.574219 220.160156 289.417969 224.179688 C 288.257812 228.191406 287.277344 230.957031 286.472656 232.476562 C 285.671875 233.992188 285.046875 234.925781 284.601562 235.285156 C 284.378906 235.464844 284.15625 235.644531 283.933594 235.820312 C 283.308594 233.007812 282.6875 230.199219 282.0625 227.390625 C 280.8125 221.769531 279.609375 217.398438 278.449219 214.269531 C 277.289062 211.148438 275.90625 207.890625 274.304688 204.503906 C 272.699219 201.113281 270.738281 197.410156 268.417969 193.390625 C 266.101562 189.378906 264.09375 186.210938 262.398438 183.890625 C 260.707031 181.570312 258.746094 179.207031 256.515625 176.796875 C 254.285156 174.386719 252.816406 172.960938 252.105469 172.511719 C 251.746094 172.289062 251.390625 172.066406 251.035156 171.84375 C 251.746094 174.835938 252.460938 177.824219 253.171875 180.8125 C 254.601562 186.789062 255.757812 192.992188 256.648438 199.417969 C 257.542969 205.839844 258.300781 212.488281 258.925781 219.359375 C 259.546875 226.230469 259.859375 232.699219 259.859375 238.765625 C 259.859375 244.832031 258.121094 249.878906 254.644531 253.890625 C 251.167969 257.910156 249.25 261.789062 248.894531 265.535156 C 248.535156 269.285156 247.914062 273.566406 247.019531 278.382812 C 246.128906 283.203125 245.058594 287.796875 243.8125 292.171875 C 242.566406 296.542969 241.179688 300.78125 239.667969 304.882812 C 238.90625 306.9375 238.148438 308.992188 237.390625 311.042969 C 238.148438 310.507812 238.90625 309.96875 239.667969 309.4375 C 241.179688 308.367188 243.277344 306.492188 245.953125 303.816406 C 248.625 301.140625 252.324219 296.988281 257.050781 291.367188 C 261.777344 285.746094 266.636719 279.457031 271.628906 272.496094 C 276.621094 265.535156 281.394531 258.578125 285.9375 251.613281 C 290.488281 244.65625 293.425781 239.792969 294.765625 237.027344 C 296.101562 234.261719 297.261719 231.09375 298.242188 227.523438 C 299.222656 223.953125 299.890625 220.386719 300.25 216.816406 C 300.605469 213.246094 300.785156 209.675781 300.785156 206.109375 C 300.785156 204.324219 300.785156 202.539062 300.785156 200.753906 C 301.765625 201.335938 302.746094 201.914062 303.726562 202.492188 C 305.6875 203.65625 308.898438 205.976562 313.355469 209.453125 C 317.8125 212.9375 320.800781 215.164062 322.316406 216.148438 C 323.832031 217.128906 324.902344 217.707031 325.527344 217.886719 C 325.835938 217.976562 326.148438 218.066406 326.460938 218.15625 C 325.703125 214.804688 324.945312 211.460938 324.1875 208.117188 C 322.671875 201.421875 321.332031 196.027344 320.175781 191.921875 C 319.019531 187.816406 317.589844 183.84375 315.894531 180.007812 C 314.203125 176.171875 312.507812 172.867188 310.816406 170.105469 C 309.121094 167.339844 308.273438 165.863281 308.273438 165.6875 C 308.273438 165.597656 308.273438 165.511719 308.273438 165.421875 C 308.585938 165.464844 308.898438 165.511719 309.210938 165.554688 C 309.832031 165.640625 312.507812 166.621094 317.234375 168.5 C 321.957031 170.371094 324.453125 171.308594 324.726562 171.308594 C 324.859375 171.308594 324.988281 171.308594 325.125 171.308594 C 325.125 171.085938 325.125 170.863281 325.125 170.640625 C 325.125 170.191406 324.679688 168.410156 323.789062 165.289062 C 322.894531 162.160156 321.917969 158.058594 320.84375 152.972656 C 319.773438 147.882812 318.839844 144.046875 318.035156 141.460938 C 317.234375 138.875 316.164062 136.019531 314.828125 132.894531 C 313.488281 129.773438 311.929688 126.785156 310.144531 123.925781 C 309.253906 122.5 308.363281 121.074219 307.472656 119.644531 C 310.902344 118.886719 314.335938 118.128906 317.769531 117.371094 C 324.636719 115.855469 328.246094 115.003906 328.601562 114.828125 C 328.960938 114.648438 329.136719 114.378906 329.136719 114.023438 C 329.136719 113.667969 327.488281 112.191406 324.1875 109.609375 C 320.890625 107.019531 316.832031 103.226562 312.015625 98.230469 C 307.203125 93.230469 302.523438 89.039062 297.976562 85.648438 C 293.425781 82.257812 289.417969 79.046875 285.9375 76.011719 C 282.460938 72.976562 279.207031 70.570312 276.175781 68.785156 C 273.144531 67 269.980469 65.570312 266.679688 64.503906 C 263.382812 63.429688 261.640625 62.984375 261.464844 63.164062 C 261.375 63.25 261.285156 63.34375 261.199219 63.429688 C 261.554688 63.609375 261.910156 63.785156 262.265625 63.964844 C 262.980469 64.324219 264.316406 65.527344 266.28125 67.578125 C 268.242188 69.628906 271.988281 73.023438 277.511719 77.753906 C 283.042969 82.480469 287.542969 86.585938 291.019531 90.066406 C 294.5 93.546875 297.21875 96.445312 299.179688 98.765625 C 301.140625 101.085938 303.101562 103.046875 305.0625 104.65625 C 307.027344 106.261719 308.007812 107.199219 308.007812 107.464844 C 308.007812 107.730469 305.910156 108.179688 301.722656 108.804688 C 297.527344 109.429688 294.410156 109.742188 292.359375 109.742188 C 290.304688 109.742188 287.722656 109.5625 284.601562 109.207031 C 281.480469 108.847656 278.585938 108.355469 275.90625 107.730469 C 273.234375 107.105469 270.46875 106.261719 267.617188 105.1875 C 264.765625 104.121094 261.332031 102.421875 257.320312 100.101562 C 253.304688 97.785156 251.257812 96.492188 251.167969 96.222656 C 251.078125 95.953125 251.65625 95.152344 252.90625 93.8125 C 254.152344 92.472656 255.445312 90.554688 256.785156 88.058594 C 258.121094 85.558594 259.101562 82.972656 259.726562 80.296875 C 260.351562 77.617188 260.660156 75.164062 260.660156 72.933594 C 260.660156 70.703125 260.441406 68.605469 259.992188 66.644531 C 259.546875 64.679688 258.789062 62.941406 257.722656 61.421875 C 256.648438 59.90625 255.535156 58.835938 254.375 58.210938 C 253.21875 57.585938 251.789062 57.230469 250.09375 57.140625 C 248.402344 57.050781 246.265625 57.363281 243.675781 58.074219 Z M 112.746094 57.273438 C 111.5 57.628906 110.472656 58.164062 109.671875 58.882812 C 108.871094 59.59375 108.15625 60.53125 107.53125 61.691406 C 106.90625 62.851562 106.417969 64.410156 106.058594 66.375 C 105.703125 68.339844 105.566406 70.792969 105.660156 73.734375 C 105.75 76.679688 105.96875 78.957031 106.328125 80.5625 C 106.683594 82.167969 107.351562 84.085938 108.332031 86.316406 C 109.3125 88.546875 110.292969 90.378906 111.273438 91.804688 C 112.253906 93.230469 113.011719 94.171875 113.550781 94.613281 C 114.085938 95.0625 114.351562 95.464844 114.351562 95.820312 C 114.351562 96.175781 112.390625 97.472656 108.46875 99.703125 C 104.542969 101.933594 101.734375 103.363281 100.042969 103.984375 C 98.347656 104.609375 95.851562 105.324219 92.550781 106.128906 C 89.253906 106.929688 85.375 107.507812 80.917969 107.867188 C 76.460938 108.222656 73.25 108.3125 71.285156 108.132812 C 69.324219 107.957031 66.875 107.507812 63.933594 106.796875 C 62.460938 106.4375 60.988281 106.082031 59.519531 105.726562 C 63.039062 102.46875 66.5625 99.210938 70.082031 95.953125 C 77.125 89.441406 81.898438 84.933594 84.394531 82.4375 C 86.890625 79.9375 89.074219 77.574219 90.945312 75.34375 C 92.820312 73.113281 95.226562 70.65625 98.167969 67.980469 C 99.640625 66.644531 101.109375 65.304688 102.582031 63.964844 C 102.492188 63.875 102.40625 63.785156 102.316406 63.699219 C 102.136719 63.519531 100.53125 63.832031 97.5 64.636719 C 94.46875 65.4375 91.347656 66.6875 88.140625 68.382812 C 84.929688 70.078125 79.488281 74.675781 71.824219 82.167969 C 64.15625 89.664062 57.914062 95.464844 53.097656 99.566406 C 48.285156 103.671875 44.496094 106.664062 41.730469 108.535156 C 38.96875 110.410156 37.585938 111.433594 37.585938 111.613281 C 37.585938 111.792969 37.855469 112.015625 38.386719 112.285156 C 38.921875 112.550781 39.859375 112.910156 41.195312 113.355469 C 42.535156 113.800781 45.742188 114.203125 50.824219 114.558594 C 55.90625 114.917969 58.941406 115.273438 59.921875 115.628906 C 60.902344 115.988281 61.390625 116.296875 61.390625 116.566406 C 61.390625 116.835938 61.035156 117.324219 60.320312 118.039062 C 59.609375 118.753906 58.539062 120.179688 57.113281 122.324219 C 55.683594 124.464844 54.257812 127.050781 52.832031 130.085938 C 51.40625 133.117188 50.289062 135.75 49.488281 137.984375 C 48.683594 140.210938 47.570312 144.09375 46.144531 149.628906 C 44.71875 155.15625 43.378906 159.621094 42.132812 163.011719 C 40.882812 166.398438 40.257812 168.273438 40.257812 168.632812 C 40.257812 168.808594 40.257812 168.992188 40.257812 169.167969 C 40.394531 169.167969 40.527344 169.167969 40.660156 169.167969 C 40.929688 169.167969 41.332031 168.992188 41.863281 168.632812 C 42.398438 168.273438 44.050781 167.695312 46.8125 166.894531 C 49.578125 166.089844 52.117188 165.511719 54.4375 165.152344 C 55.597656 164.972656 56.753906 164.796875 57.914062 164.617188 C 57.914062 164.753906 57.914062 164.886719 57.914062 165.015625 C 57.914062 165.289062 56.796875 167.074219 54.570312 170.371094 C 52.339844 173.671875 50.425781 177.152344 48.820312 180.8125 C 47.214844 184.46875 45.742188 188.886719 44.40625 194.0625 C 43.070312 199.238281 42.132812 203.296875 41.597656 206.242188 C 41.0625 209.1875 40.796875 211.238281 40.796875 212.402344 C 40.796875 212.980469 40.796875 213.558594 40.796875 214.136719 C 41.285156 213.960938 41.773438 213.78125 42.265625 213.605469 C 43.246094 213.246094 45.566406 211.773438 49.21875 209.1875 C 52.878906 206.597656 56.261719 204.457031 59.382812 202.761719 C 60.945312 201.914062 62.503906 201.066406 64.066406 200.21875 C 64.066406 202.363281 64.066406 204.503906 64.066406 206.644531 C 64.066406 210.925781 64.289062 214.941406 64.734375 218.691406 C 65.179688 222.4375 65.761719 225.605469 66.472656 228.191406 C 67.1875 230.78125 68.121094 233.367188 69.28125 235.957031 C 70.441406 238.546875 73.828125 244.207031 79.445312 252.953125 C 85.0625 261.699219 90.277344 269.375 95.09375 275.976562 C 99.910156 282.578125 104.1875 288.066406 107.933594 292.4375 C 111.675781 296.8125 115.199219 300.648438 118.496094 303.949219 C 121.796875 307.25 124.027344 309.304688 125.183594 310.105469 C 125.765625 310.507812 126.34375 310.910156 126.921875 311.3125 C 126.03125 308.542969 125.140625 305.777344 124.25 303.011719 C 122.464844 297.480469 121.039062 292.4375 119.96875 287.886719 C 118.898438 283.335938 118.054688 279.1875 117.429688 275.4375 C 116.804688 271.695312 116.355469 268.257812 116.089844 265.132812 C 115.824219 262.011719 114.128906 258.667969 111.007812 255.097656 C 107.886719 251.523438 106.058594 249.207031 105.527344 248.136719 C 104.988281 247.066406 104.769531 243.761719 104.855469 238.230469 C 104.945312 232.699219 105.347656 226.320312 106.058594 219.089844 C 106.773438 211.863281 107.710938 204.722656 108.871094 197.675781 C 110.027344 190.628906 111.273438 184.601562 112.613281 179.605469 C 113.28125 177.109375 113.953125 174.609375 114.617188 172.109375 C 114.484375 172.109375 114.351562 172.109375 114.21875 172.109375 C 113.953125 172.109375 112.433594 173.585938 109.671875 176.527344 C 106.90625 179.472656 104.5 182.375 102.449219 185.226562 C 100.398438 188.082031 98.660156 190.714844 97.230469 193.125 C 95.804688 195.535156 93.886719 199.195312 91.484375 204.097656 C 89.074219 209.007812 87.335938 212.84375 86.265625 215.613281 C 85.195312 218.375 84.039062 222.4375 82.789062 227.789062 C 81.542969 233.144531 80.785156 235.820312 80.515625 235.820312 C 80.246094 235.820312 79.625 234.925781 78.644531 233.144531 C 77.664062 231.359375 76.636719 228.460938 75.566406 224.445312 C 74.496094 220.429688 73.742188 216.546875 73.292969 212.800781 C 72.847656 209.050781 72.582031 203.523438 72.492188 196.203125 C 72.445312 192.546875 72.402344 188.886719 72.359375 185.226562 C 70.84375 185.984375 69.324219 186.746094 67.808594 187.503906 C 64.78125 189.019531 61.257812 191.296875 57.246094 194.332031 C 55.242188 195.847656 53.234375 197.363281 51.226562 198.878906 C 51.894531 196.917969 52.5625 194.957031 53.234375 192.992188 C 54.570312 189.066406 56.222656 185.007812 58.179688 180.8125 C 60.140625 176.617188 61.660156 173.671875 62.726562 171.976562 C 63.800781 170.28125 65.179688 168.410156 66.875 166.359375 C 68.566406 164.304688 70.53125 162.207031 72.757812 160.066406 C 74.988281 157.925781 77.707031 155.558594 80.917969 152.972656 C 84.125 150.386719 87.292969 148.019531 90.410156 145.878906 C 93.53125 143.738281 98.125 140.925781 104.1875 137.445312 C 110.25 133.964844 114.664062 131.023438 117.429688 128.613281 C 120.191406 126.203125 121.574219 124.863281 121.574219 124.597656 C 121.574219 124.464844 121.574219 124.328125 121.574219 124.195312 C 121.4375 124.195312 121.304688 124.195312 121.171875 124.195312 C 120.90625 124.195312 119.253906 124.863281 116.222656 126.203125 C 113.191406 127.542969 108.421875 129.148438 101.914062 131.023438 C 95.40625 132.894531 89.386719 134.234375 83.859375 135.035156 C 78.332031 135.839844 74.453125 136.242188 72.222656 136.242188 C 71.109375 136.242188 69.996094 136.242188 68.882812 136.242188 C 68.882812 136.152344 68.882812 136.0625 68.882812 135.976562 C 68.882812 135.792969 69.859375 135.304688 71.824219 134.5 C 73.785156 133.699219 77.039062 131.871094 81.585938 129.011719 C 86.132812 126.160156 92.015625 122.054688 99.238281 116.699219 C 106.460938 111.347656 110.472656 108.265625 111.273438 107.464844 C 112.078125 106.664062 114.351562 104.921875 118.09375 102.246094 C 121.839844 99.566406 126.523438 96 132.140625 91.539062 C 137.753906 87.074219 141.636719 84.132812 143.773438 82.703125 C 145.914062 81.277344 147.785156 80.652344 149.390625 80.828125 C 150.996094 81.007812 153.804688 81.632812 157.816406 82.703125 C 161.828125 83.773438 166.285156 85.335938 171.191406 87.386719 C 173.640625 88.414062 176.09375 89.441406 178.546875 90.46875 C 178.503906 90.152344 178.457031 89.84375 178.414062 89.53125 C 178.324219 88.90625 178.054688 88.191406 177.613281 87.386719 C 177.164062 86.585938 176.359375 85.605469 175.203125 84.445312 C 174.046875 83.285156 172.394531 81.988281 170.253906 80.5625 C 168.113281 79.136719 165.660156 77.753906 162.898438 76.414062 C 160.136719 75.074219 157.148438 73.871094 153.941406 72.800781 C 150.730469 71.730469 148.765625 71.191406 148.054688 71.191406 C 147.34375 71.191406 146.136719 71.550781 144.445312 72.265625 C 142.75 72.976562 141.589844 72.800781 140.964844 71.730469 C 140.339844 70.65625 139.226562 69.320312 137.621094 67.710938 C 136.015625 66.105469 134.324219 64.636719 132.539062 63.296875 C 130.757812 61.957031 128.484375 60.664062 125.71875 59.414062 C 122.953125 58.164062 120.414062 57.40625 118.09375 57.140625 C 115.777344 56.871094 113.996094 56.917969 112.746094 57.273438 Z M 165.707031 18.324219 C 165.707031 18.949219 166.066406 20.554688 166.777344 23.140625 C 167.132812 24.4375 167.492188 25.730469 167.847656 27.027344 C 166.417969 26.800781 164.996094 26.578125 163.566406 26.355469 C 160.714844 25.910156 156.792969 25.507812 151.800781 25.148438 C 146.804688 24.792969 141.945312 24.660156 137.21875 24.75 C 132.496094 24.839844 128.304688 25.242188 124.648438 25.953125 C 120.992188 26.667969 117.917969 27.46875 115.421875 28.363281 C 112.925781 29.253906 110.160156 30.550781 107.128906 32.246094 C 104.097656 33.941406 101.023438 36.125 97.902344 38.800781 C 94.78125 41.480469 92.730469 43.445312 91.75 44.691406 C 90.769531 45.941406 90.101562 47.011719 89.746094 47.90625 C 89.566406 48.347656 89.386719 48.796875 89.207031 49.242188 C 89.878906 49.152344 90.546875 49.066406 91.214844 48.976562 C 92.550781 48.796875 95.941406 47.90625 101.378906 46.296875 C 106.816406 44.691406 111.808594 43.578125 116.355469 42.953125 C 120.90625 42.328125 125.273438 42.0625 129.464844 42.148438 C 133.65625 42.238281 137.578125 42.683594 141.234375 43.488281 C 144.890625 44.289062 148.007812 45.183594 150.59375 46.164062 C 153.183594 47.148438 155.277344 48.082031 156.878906 48.976562 C 158.484375 49.867188 160.089844 50.9375 161.695312 52.1875 C 163.296875 53.4375 165.394531 55.535156 167.980469 58.480469 C 170.570312 61.421875 173.375 65.4375 176.40625 70.523438 C 179.4375 75.609375 181.085938 78.109375 181.355469 78.019531 C 181.625 77.929688 181.710938 77.527344 181.621094 76.816406 C 181.53125 76.101562 181.085938 74.183594 180.285156 71.058594 C 179.480469 67.9375 178.722656 65.480469 178.011719 63.699219 C 177.296875 61.914062 176.183594 59.683594 174.667969 57.003906 C 173.152344 54.328125 171.546875 51.964844 169.851562 49.910156 C 168.160156 47.859375 166.242188 45.851562 164.105469 43.886719 C 161.960938 41.925781 159.023438 39.828125 155.277344 37.601562 C 151.53125 35.367188 149.570312 34.074219 149.390625 33.714844 C 149.300781 33.539062 149.214844 33.359375 149.125 33.179688 C 150.59375 33.3125 152.066406 33.449219 153.539062 33.582031 C 156.476562 33.851562 160.359375 34.519531 165.171875 35.589844 C 169.984375 36.660156 173.0625 37.242188 174.402344 37.332031 C 175.070312 37.375 175.734375 37.417969 176.40625 37.464844 C 176.007812 35.636719 175.601562 33.804688 175.203125 31.976562 C 174.800781 30.148438 174.402344 28.320312 174 26.488281 C 177.296875 26.535156 180.597656 26.578125 183.894531 26.625 C 187.195312 26.667969 190.492188 26.710938 193.792969 26.757812 C 193.617188 28.007812 193.4375 29.253906 193.257812 30.503906 C 192.898438 33.003906 192.769531 34.832031 192.855469 35.992188 C 192.945312 37.152344 193.835938 37.6875 195.53125 37.601562 C 197.226562 37.507812 200.257812 37.109375 204.625 36.394531 C 208.992188 35.679688 212.027344 35.324219 213.71875 35.324219 C 214.566406 35.324219 215.414062 35.324219 216.261719 35.324219 C 214.210938 36.75 212.160156 38.175781 210.109375 39.605469 C 206.003906 42.460938 202.527344 45.40625 199.675781 48.441406 C 196.824219 51.472656 194.730469 53.972656 193.390625 55.9375 C 192.054688 57.898438 190.808594 60.082031 189.644531 62.492188 C 188.488281 64.902344 187.503906 67.804688 186.707031 71.191406 C 186.304688 72.890625 185.898438 74.585938 185.5 76.277344 C 185.8125 76.054688 186.125 75.835938 186.433594 75.609375 C 187.0625 75.164062 188.664062 72.976562 191.25 69.050781 C 193.835938 65.128906 196.378906 61.867188 198.875 59.28125 C 201.371094 56.695312 203.957031 54.460938 206.632812 52.589844 C 209.308594 50.714844 212.292969 49.109375 215.59375 47.769531 C 218.890625 46.429688 222.011719 45.449219 224.953125 44.824219 C 227.898438 44.199219 230.394531 43.800781 232.441406 43.621094 C 234.496094 43.445312 238.015625 43.445312 243.007812 43.621094 C 248 43.800781 252.234375 44.199219 255.714844 44.824219 C 259.191406 45.449219 263.738281 46.746094 269.355469 48.707031 C 272.164062 49.691406 274.972656 50.667969 277.78125 51.652344 C 277.15625 50.359375 276.53125 49.066406 275.90625 47.769531 C 274.660156 45.183594 273.054688 42.863281 271.09375 40.8125 C 269.132812 38.757812 266.859375 36.839844 264.273438 35.054688 C 261.6875 33.273438 258.699219 31.664062 255.3125 30.238281 C 251.925781 28.808594 248.089844 27.695312 243.8125 26.890625 C 239.53125 26.085938 235.253906 25.6875 230.972656 25.6875 C 226.695312 25.6875 220.539062 26.175781 212.515625 27.160156 C 208.503906 27.648438 204.492188 28.140625 200.480469 28.628906 C 200.882812 26.933594 201.28125 25.242188 201.683594 23.542969 C 202.085938 21.847656 202.484375 20.15625 202.886719 18.457031 C 198.964844 18.546875 195.042969 18.636719 191.117188 18.726562 C 183.269531 18.902344 177.074219 18.726562 172.527344 18.191406 C 170.253906 17.921875 167.980469 17.65625 165.707031 17.386719 C 165.707031 17.703125 165.707031 18.011719 165.707031 18.324219 " fill-opacity="1" fill-rule="nonzero"/></g></svg>