<svg xmlns="http://www.w3.org/2000/svg" xmlns:xlink="http://www.w3.org/1999/xlink" width="500" zoomAndPan="magnify" viewBox="0 0 375 374.999991" height="500" preserveAspectRatio="xMidYMid meet" version="1.0"><defs><clipPath id="0c8897b2b8"><path d="M 37.5 17.386719 L 329.25 17.386719 L 329.25 357.886719 L 37.5 357.886719 Z M 37.5 17.386719 " clip-rule="nonzero"/></clipPath></defs><g clip-path="url(#0c8897b2b8)"><path fill="#ffbe12" d="M 225.75 247.542969 C 225.660156 254.050781 225.4375 259 225.082031 262.386719 C 224.722656 265.773438 224.101562 269.03125 223.210938 272.152344 C 222.316406 275.269531 221.113281 278.480469 219.597656 281.78125 C 218.082031 285.078125 216.253906 288.332031 214.113281 291.542969 C 213.046875 293.144531 211.972656 294.75 210.90625 296.355469 C 210.546875 294.484375 210.191406 292.613281 209.835938 290.742188 C 209.121094 286.996094 208.632812 284.585938 208.363281 283.519531 C 208.097656 282.449219 207.828125 281.78125 207.5625 281.511719 C 207.425781 281.378906 207.292969 281.246094 207.160156 281.109375 C 204.617188 284.230469 202.078125 287.355469 199.539062 290.472656 C 194.453125 296.714844 191.289062 300.8125 190.042969 302.777344 C 188.792969 304.738281 187.320312 307.589844 185.628906 311.335938 C 184.78125 313.207031 183.933594 315.078125 183.085938 316.953125 C 182.195312 315.078125 181.304688 313.207031 180.414062 311.335938 C 178.628906 307.589844 177.113281 304.738281 175.867188 302.777344 C 174.617188 300.8125 171.449219 296.667969 166.371094 290.339844 C 163.832031 287.171875 161.289062 284.007812 158.75 280.84375 C 158.613281 281.019531 158.480469 281.199219 158.347656 281.378906 C 158.078125 281.734375 157.367188 284.230469 156.207031 288.867188 C 155.046875 293.503906 154.332031 295.867188 154.066406 295.957031 C 153.800781 296.042969 153.351562 295.644531 152.726562 294.75 C 152.105469 293.859375 150.859375 291.71875 148.984375 288.332031 C 147.113281 284.945312 145.417969 281.246094 143.90625 277.234375 C 142.390625 273.222656 141.230469 269.339844 140.425781 265.597656 C 139.625 261.855469 139.089844 257.039062 138.820312 251.15625 C 138.554688 245.269531 138.285156 242.285156 138.023438 242.195312 C 137.753906 242.105469 137.574219 242.148438 137.484375 242.328125 C 137.398438 242.507812 136.90625 245.226562 136.011719 250.484375 C 135.121094 255.746094 134.542969 260.113281 134.277344 263.59375 C 134.003906 267.070312 133.871094 270.679688 133.871094 274.425781 C 133.871094 278.167969 134.320312 283.25 135.210938 289.667969 C 136.101562 296.089844 137.214844 301.527344 138.554688 305.988281 C 139.890625 310.445312 140.875 313.339844 141.496094 314.679688 C 142.121094 316.019531 142.921875 317.085938 143.90625 317.886719 C 144.882812 318.691406 146.398438 320.382812 148.449219 322.972656 C 150.5 325.554688 152.863281 328.277344 155.539062 331.128906 C 158.214844 333.980469 159.683594 335.40625 159.953125 335.40625 C 160.21875 335.40625 160.710938 332.777344 161.421875 327.515625 C 161.78125 324.882812 162.132812 322.257812 162.492188 319.628906 C 162.667969 319.667969 162.851562 319.714844 163.027344 319.761719 C 163.386719 319.847656 164.230469 321.140625 165.570312 323.636719 C 166.910156 326.132812 168.867188 330.371094 171.449219 336.347656 C 174.039062 342.316406 176.578125 347.351562 179.078125 351.453125 C 180.324219 353.503906 181.574219 355.558594 182.820312 357.605469 C 182.953125 357.515625 183.085938 357.429688 183.21875 357.339844 C 183.492188 357.164062 184.960938 354.753906 187.636719 350.117188 C 190.308594 345.480469 192.539062 341.160156 194.324219 337.144531 C 196.101562 333.136719 197.933594 329.34375 199.804688 325.777344 C 201.675781 322.210938 202.789062 320.296875 203.148438 320.027344 C 203.324219 319.894531 203.503906 319.761719 203.683594 319.628906 C 203.730469 319.800781 203.773438 319.984375 203.816406 320.160156 C 203.90625 320.519531 204.082031 322.835938 204.355469 327.113281 C 204.617188 331.394531 204.886719 333.847656 205.152344 334.46875 C 205.285156 334.78125 205.421875 335.09375 205.554688 335.40625 C 206.3125 334.695312 207.070312 333.980469 207.828125 333.269531 C 209.34375 331.839844 212.066406 328.855469 215.988281 324.304688 C 219.90625 319.761719 222.316406 316.59375 223.210938 314.8125 C 224.101562 313.03125 225.347656 309.507812 226.953125 304.25 C 228.558594 298.984375 229.761719 293.59375 230.5625 288.066406 C 231.363281 282.539062 231.769531 277.722656 231.769531 273.621094 C 231.769531 269.519531 231.589844 265.773438 231.230469 262.386719 C 230.875 259 230.386719 255.523438 229.761719 251.957031 C 229.136719 248.390625 228.511719 245.40625 227.890625 242.996094 C 227.265625 240.589844 226.773438 239.117188 226.417969 238.582031 C 226.238281 238.316406 226.0625 238.050781 225.882812 237.78125 C 225.839844 241.035156 225.792969 244.289062 225.75 247.542969 Z M 182.019531 221.464844 C 183.445312 221.464844 185.671875 221.910156 188.703125 222.804688 C 191.738281 223.695312 194.988281 224.453125 198.46875 225.078125 C 201.941406 225.699219 203.730469 226.992188 203.816406 228.957031 C 203.90625 230.917969 203.640625 232.699219 203.011719 234.304688 C 202.390625 235.910156 201.808594 237.023438 201.277344 237.644531 C 200.742188 238.273438 199.847656 238.988281 198.601562 239.789062 C 197.351562 240.589844 195.925781 241.257812 194.324219 241.792969 C 192.71875 242.328125 190.980469 242.730469 189.105469 242.996094 C 187.234375 243.265625 184.558594 243.355469 181.082031 243.265625 C 177.605469 243.175781 174.929688 242.90625 173.054688 242.460938 C 171.1875 242.015625 169.445312 241.390625 167.839844 240.589844 C 166.234375 239.789062 165.078125 239.03125 164.363281 238.316406 C 163.652344 237.601562 162.9375 236.578125 162.226562 235.242188 C 161.511719 233.902344 161.066406 232.03125 160.886719 229.625 C 160.710938 227.21875 163.832031 225.257812 170.25 223.738281 C 176.667969 222.222656 180.589844 221.464844 182.019531 221.464844 Z M 221.199219 134.9375 C 218.082031 135.742188 216.03125 136.367188 215.050781 136.8125 C 214.070312 137.257812 212.597656 138.550781 210.636719 140.691406 C 209.65625 141.757812 208.675781 142.832031 207.695312 143.902344 C 209.925781 143.589844 212.152344 143.273438 214.382812 142.964844 C 218.839844 142.339844 221.960938 140.824219 223.742188 138.417969 C 225.523438 136.011719 226.460938 134.628906 226.550781 134.273438 C 226.59375 134.09375 226.640625 133.914062 226.6875 133.738281 C 226.550781 133.738281 226.417969 133.738281 226.285156 133.738281 C 226.015625 133.738281 224.324219 134.136719 221.199219 134.9375 Z M 139.757812 136.277344 C 140.828125 138.148438 141.765625 139.53125 142.5625 140.421875 C 143.371094 141.316406 144.527344 141.984375 146.042969 142.429688 C 147.558594 142.875 149.832031 143.230469 152.863281 143.496094 C 154.378906 143.632812 155.894531 143.769531 157.410156 143.902344 C 156.339844 142.785156 155.273438 141.671875 154.199219 140.558594 C 152.0625 138.328125 148.851562 136.589844 144.574219 135.339844 C 142.433594 134.71875 140.292969 134.09375 138.15625 133.46875 C 138.6875 134.40625 139.222656 135.339844 139.757812 136.277344 Z M 133.207031 123.4375 C 133.113281 123.707031 133.292969 124.242188 133.738281 125.042969 C 134.1875 125.847656 135.210938 126.828125 136.816406 127.984375 C 138.421875 129.144531 140.027344 129.945312 141.632812 130.394531 C 143.234375 130.835938 145.820312 131.285156 149.386719 131.730469 C 152.953125 132.175781 155.003906 132.535156 155.539062 132.800781 C 156.074219 133.066406 156.699219 133.824219 157.410156 135.074219 C 158.125 136.320312 158.65625 137.972656 159.015625 140.023438 C 159.375 142.074219 159.550781 144.167969 159.550781 146.308594 C 159.550781 148.445312 159.328125 150.1875 158.882812 151.523438 C 158.433594 152.863281 156.386719 155.578125 152.726562 159.679688 C 149.074219 163.78125 145.6875 168.105469 142.5625 172.65625 C 139.445312 177.199219 137.527344 179.25 136.816406 178.804688 C 136.101562 178.359375 134.765625 177.109375 132.804688 175.058594 C 130.84375 173.007812 129.28125 171.136719 128.125 169.445312 C 126.964844 167.75 125.804688 165.789062 124.648438 163.558594 C 123.488281 161.328125 122.507812 159.101562 121.703125 156.871094 C 120.902344 154.644531 120.324219 152.636719 119.964844 150.855469 C 119.609375 149.070312 119.429688 146.039062 119.429688 141.757812 C 119.429688 139.621094 119.429688 137.480469 119.429688 135.339844 C 118.941406 136.144531 118.449219 136.945312 117.960938 137.75 C 116.980469 139.355469 115.953125 141.539062 114.882812 144.304688 C 113.8125 147.066406 113.144531 148.894531 112.878906 149.785156 C 112.609375 150.675781 112.519531 151.96875 112.609375 153.660156 C 112.699219 155.355469 113.054688 157.320312 113.679688 159.546875 C 114.304688 161.777344 115.0625 163.824219 115.953125 165.699219 C 116.847656 167.570312 118.09375 169.710938 119.699219 172.117188 C 121.304688 174.523438 123.933594 177.734375 127.589844 181.75 C 131.242188 185.757812 132.9375 190.214844 132.671875 195.121094 C 132.402344 200.023438 132.445312 203.636719 132.804688 205.953125 C 133.160156 208.269531 133.695312 210.230469 134.410156 211.835938 C 135.121094 213.441406 135.96875 214.914062 136.949219 216.25 C 137.929688 217.589844 138.910156 218.703125 139.890625 219.59375 C 140.875 220.484375 142.300781 221.554688 144.167969 222.804688 C 146.042969 224.050781 147.738281 224.988281 149.253906 225.613281 C 150.769531 226.234375 151.617188 227.792969 151.796875 230.292969 C 151.96875 232.789062 152.507812 235.242188 153.398438 237.644531 C 154.292969 240.054688 155.363281 242.015625 156.609375 243.53125 C 157.855469 245.046875 159.375 246.382812 161.15625 247.542969 C 162.9375 248.703125 165.480469 249.773438 168.777344 250.753906 C 172.074219 251.734375 175.730469 252.3125 179.746094 252.492188 C 183.757812 252.671875 187.410156 252.492188 190.710938 251.957031 C 194.007812 251.421875 196.90625 250.617188 199.402344 249.550781 C 201.902344 248.480469 203.90625 247.320312 205.421875 246.074219 C 206.9375 244.828125 208.183594 243.441406 209.167969 241.925781 C 210.148438 240.410156 210.949219 238.671875 211.574219 236.710938 C 212.199219 234.746094 212.597656 232.566406 212.777344 230.15625 C 212.953125 227.753906 214.601562 225.699219 217.726562 224.007812 C 220.847656 222.3125 223.25 220.664062 224.945312 219.058594 C 226.640625 217.453125 227.84375 216.117188 228.558594 215.046875 C 229.269531 213.976562 230.03125 212.195312 230.828125 209.695312 C 231.636719 207.199219 231.988281 202.964844 231.898438 196.992188 C 231.808594 191.019531 233.863281 185.800781 238.054688 181.347656 C 242.242188 176.890625 245.363281 173.007812 247.414062 169.710938 C 249.464844 166.410156 250.847656 163.691406 251.558594 161.554688 C 252.269531 159.414062 252.71875 157.40625 252.894531 155.535156 C 253.074219 153.660156 252.988281 152.011719 252.628906 150.585938 C 252.269531 149.160156 251.382812 146.75 249.953125 143.363281 C 248.527344 139.976562 247.59375 137.925781 247.148438 137.214844 C 246.921875 136.855469 246.699219 136.5 246.476562 136.144531 C 246.386719 136.234375 246.300781 136.320312 246.210938 136.410156 C 246.03125 136.589844 245.988281 138.015625 246.078125 140.691406 C 246.167969 143.363281 246.078125 145.910156 245.808594 148.3125 C 245.542969 150.722656 245.007812 153.21875 244.203125 155.800781 C 243.402344 158.386719 242.464844 160.796875 241.394531 163.027344 C 240.328125 165.253906 238.988281 167.484375 237.382812 169.710938 C 235.777344 171.941406 234.039062 173.945312 232.167969 175.726562 C 230.296875 177.511719 228.960938 178.578125 228.15625 178.9375 C 227.355469 179.292969 225.214844 176.976562 221.738281 171.984375 C 218.261719 166.992188 214.824219 162.535156 211.441406 158.609375 C 208.050781 154.6875 206.222656 152.054688 205.957031 150.722656 C 205.6875 149.382812 205.601562 147.378906 205.6875 144.703125 C 205.777344 142.027344 206 139.84375 206.359375 138.148438 C 206.714844 136.457031 207.292969 135.117188 208.097656 134.136719 C 208.894531 133.15625 211.308594 132.398438 215.316406 131.863281 C 219.332031 131.328125 222.226562 130.796875 224.007812 130.261719 C 225.792969 129.722656 227.398438 128.832031 228.824219 127.585938 C 230.253906 126.335938 231.144531 125.3125 231.5 124.507812 C 231.675781 124.109375 231.855469 123.707031 232.035156 123.304688 C 229.984375 123.75 227.933594 124.199219 225.882812 124.640625 C 221.777344 125.535156 217.859375 126.113281 214.113281 126.378906 C 210.367188 126.648438 207.964844 127.003906 206.890625 127.453125 C 205.820312 127.894531 204.976562 128.433594 204.355469 129.058594 C 203.730469 129.679688 203.191406 130.75 202.75 132.265625 C 202.300781 133.78125 202.210938 137.75 202.476562 144.167969 C 202.75 150.585938 203.238281 154.867188 203.949219 157.003906 C 204.660156 159.144531 205.378906 160.886719 206.089844 162.21875 C 206.800781 163.558594 208.585938 166.054688 211.441406 169.710938 C 214.292969 173.367188 216.746094 177.023438 218.792969 180.675781 C 220.847656 184.332031 222.09375 186.917969 222.539062 188.433594 C 222.984375 189.949219 223.339844 192.085938 223.609375 194.851562 C 223.875 197.617188 223.921875 200.070312 223.742188 202.210938 C 223.566406 204.347656 223.25 205.996094 222.804688 207.15625 C 222.363281 208.316406 221.511719 209.605469 220.265625 211.035156 C 219.019531 212.460938 217.902344 213.53125 216.921875 214.246094 C 215.941406 214.957031 214.601562 215.714844 212.914062 216.519531 C 211.214844 217.320312 209.523438 217.945312 207.828125 218.386719 C 206.132812 218.835938 204.574219 219.058594 203.148438 219.058594 C 201.71875 219.058594 200.164062 218.878906 198.46875 218.523438 C 196.773438 218.164062 194.902344 217.628906 192.851562 216.917969 C 190.800781 216.207031 189.148438 215.492188 187.902344 214.777344 C 186.65625 214.066406 185.894531 213.53125 185.628906 213.171875 C 185.359375 212.816406 185.09375 211.925781 184.824219 210.5 C 184.558594 209.070312 184.425781 207.464844 184.425781 205.6875 C 184.425781 203.902344 184.558594 202.519531 184.824219 201.539062 C 185.09375 200.558594 186.03125 199.488281 187.636719 198.332031 C 189.242188 197.171875 192.179688 195.746094 196.460938 194.050781 C 200.742188 192.355469 203.324219 191.105469 204.21875 190.308594 C 205.109375 189.503906 206.179688 187.765625 207.425781 185.089844 C 208.675781 182.414062 209.390625 180.675781 209.570312 179.875 C 209.742188 179.070312 209.835938 178.269531 209.835938 177.46875 C 209.835938 176.667969 209.742188 176.175781 209.570312 175.996094 C 209.390625 175.816406 209.121094 175.726562 208.761719 175.726562 C 208.40625 175.726562 207.515625 176.175781 206.089844 177.066406 C 204.660156 177.957031 203.28125 178.671875 201.941406 179.203125 C 200.609375 179.742188 198.199219 180.144531 194.722656 180.410156 C 191.246094 180.675781 187.1875 180.808594 182.554688 180.808594 C 177.914062 180.808594 174.085938 180.71875 171.050781 180.542969 C 168.019531 180.367188 165.878906 180.144531 164.632812 179.875 C 163.386719 179.609375 162.269531 179.25 161.289062 178.804688 C 160.308594 178.359375 159.460938 177.824219 158.75 177.199219 C 158.035156 176.574219 157.234375 176.128906 156.339844 175.863281 C 155.894531 175.726562 155.449219 175.59375 155.003906 175.460938 C 155.003906 176.21875 155.003906 176.976562 155.003906 177.734375 C 155.003906 179.25 155.628906 181.476562 156.875 184.421875 C 158.125 187.363281 159.28125 189.324219 160.355469 190.308594 C 161.421875 191.289062 163.832031 192.445312 167.574219 193.78125 C 171.316406 195.121094 173.863281 196.191406 175.195312 196.992188 C 176.535156 197.796875 177.605469 198.597656 178.40625 199.398438 C 179.210938 200.203125 179.699219 201.09375 179.875 202.078125 C 180.054688 203.054688 180.101562 204.839844 180.007812 207.425781 C 179.925781 210.011719 179.746094 211.613281 179.476562 212.242188 C 179.210938 212.863281 178.851562 213.351562 178.40625 213.710938 C 177.960938 214.066406 176.132812 214.867188 172.921875 216.117188 C 169.714844 217.363281 167.171875 218.164062 165.304688 218.523438 C 163.429688 218.878906 161.867188 219.058594 160.621094 219.058594 C 159.375 219.058594 158.125 218.925781 156.875 218.660156 C 155.628906 218.386719 154.113281 217.855469 152.328125 217.054688 C 150.546875 216.25 148.808594 215.136719 147.113281 213.710938 C 145.417969 212.28125 144.035156 210.542969 142.96875 208.496094 C 141.898438 206.441406 141.273438 203.8125 141.09375 200.605469 C 140.917969 197.394531 141.050781 194.496094 141.496094 191.914062 C 141.941406 189.324219 142.746094 186.785156 143.90625 184.285156 C 145.0625 181.789062 146.265625 179.519531 147.515625 177.46875 C 148.761719 175.417969 150.722656 172.695312 153.398438 169.308594 C 156.074219 165.921875 158.125 162.710938 159.550781 159.679688 C 160.976562 156.648438 161.957031 153.039062 162.492188 148.847656 C 163.027344 144.65625 163.25 140.867188 163.164062 137.480469 C 163.074219 134.09375 162.625 131.777344 161.824219 130.527344 C 161.023438 129.277344 160.085938 128.386719 159.015625 127.851562 C 157.945312 127.320312 155.449219 126.871094 151.527344 126.515625 C 147.605469 126.15625 143.59375 125.488281 139.492188 124.507812 C 135.386719 123.527344 133.292969 123.171875 133.207031 123.4375 Z M 250.359375 66.066406 C 251.335938 66.066406 251.964844 66.289062 252.226562 66.734375 C 252.496094 67.183594 252.628906 69.054688 252.628906 72.351562 C 252.628906 75.652344 252.40625 78.105469 251.964844 79.710938 C 251.515625 81.3125 250.933594 82.871094 250.222656 84.390625 C 249.511719 85.90625 248.839844 87.152344 248.21875 88.132812 C 247.59375 89.113281 246.789062 90.007812 245.808594 90.808594 C 244.828125 91.609375 243.445312 91.121094 241.664062 89.335938 C 239.878906 87.554688 236.9375 85.191406 232.835938 82.246094 C 228.734375 79.304688 226.6875 77.746094 226.6875 77.566406 C 226.6875 77.390625 228.113281 76.230469 230.964844 74.089844 C 233.816406 71.949219 236.359375 70.390625 238.589844 69.410156 C 240.816406 68.429688 243.089844 67.628906 245.410156 67.003906 C 247.722656 66.378906 249.375 66.066406 250.359375 66.066406 Z M 116.222656 66.335938 C 117.828125 66.511719 119.789062 67.003906 122.105469 67.808594 C 124.421875 68.605469 126.695312 69.585938 128.925781 70.75 C 131.152344 71.90625 133.382812 73.246094 135.609375 74.761719 C 136.726562 75.515625 137.839844 76.273438 138.953125 77.03125 C 136.503906 79.085938 134.050781 81.132812 131.601562 83.1875 C 126.695312 87.285156 123.667969 89.691406 122.507812 90.40625 C 121.347656 91.121094 120.097656 90.585938 118.761719 88.800781 C 117.425781 87.019531 116.265625 84.925781 115.285156 82.515625 C 114.304688 80.109375 113.679688 77.347656 113.410156 74.226562 C 113.144531 71.105469 113.144531 68.964844 113.410156 67.808594 C 113.679688 66.648438 114.617188 66.15625 116.222656 66.335938 Z M 243.667969 58.042969 C 241.085938 58.757812 238.898438 59.601562 237.117188 60.585938 C 235.335938 61.566406 233.058594 63.257812 230.296875 65.664062 C 227.53125 68.074219 225.613281 70.035156 224.546875 71.550781 C 223.476562 73.066406 222.183594 73.464844 220.664062 72.753906 C 219.152344 72.039062 217.992188 71.683594 217.191406 71.683594 C 216.386719 71.683594 214.824219 71.996094 212.507812 72.621094 C 210.191406 73.246094 207.207031 74.359375 203.546875 75.964844 C 199.894531 77.566406 196.773438 79.21875 194.191406 80.910156 C 191.601562 82.605469 189.773438 84.03125 188.703125 85.191406 C 187.636719 86.351562 186.921875 87.464844 186.5625 88.535156 C 186.386719 89.070312 186.207031 89.605469 186.03125 90.140625 C 186.207031 90.183594 186.386719 90.230469 186.5625 90.273438 C 186.921875 90.363281 188.125 89.871094 190.175781 88.800781 C 192.226562 87.734375 194.722656 86.664062 197.664062 85.589844 C 200.609375 84.523438 204.128906 83.496094 208.230469 82.515625 C 212.332031 81.535156 215.050781 81 216.386719 80.910156 C 217.726562 80.824219 226.90625 87.242188 243.9375 100.171875 C 260.964844 113.097656 272.375 121.476562 278.171875 125.3125 C 283.96875 129.144531 287.980469 131.640625 290.207031 132.800781 C 292.4375 133.957031 294.222656 134.71875 295.554688 135.074219 C 296.894531 135.429688 297.5625 135.695312 297.5625 135.878906 C 297.5625 135.964844 297.5625 136.054688 297.5625 136.144531 C 296.714844 136.144531 295.871094 136.144531 295.023438 136.144531 C 293.328125 136.144531 290.074219 135.878906 285.257812 135.339844 C 280.445312 134.804688 274.785156 133.738281 268.273438 132.132812 C 261.769531 130.527344 257.175781 129.234375 254.5 128.253906 C 251.828125 127.273438 249.644531 126.335938 247.945312 125.445312 C 246.257812 124.554688 245.050781 124.0625 244.335938 123.976562 C 243.980469 123.929688 243.625 123.882812 243.269531 123.839844 C 243.269531 124.0625 243.269531 124.285156 243.269531 124.507812 C 243.269531 124.957031 244.5625 126.203125 247.148438 128.253906 C 249.734375 130.304688 253.210938 132.535156 257.578125 134.9375 C 261.945312 137.347656 266.402344 140.023438 270.949219 142.964844 C 275.5 145.910156 279.734375 148.894531 283.65625 151.921875 C 287.578125 154.957031 290.65625 157.496094 292.882812 159.546875 C 295.113281 161.597656 297.117188 163.78125 298.898438 166.101562 C 300.683594 168.417969 302.289062 170.914062 303.714844 173.589844 C 305.144531 176.265625 306.613281 179.382812 308.132812 182.949219 C 309.644531 186.515625 310.984375 190.125 312.140625 193.78125 C 312.71875 195.613281 313.296875 197.4375 313.878906 199.265625 C 311.203125 197.300781 308.53125 195.34375 305.855469 193.382812 C 300.503906 189.457031 297.253906 187.183594 296.089844 186.5625 C 294.933594 185.9375 293.949219 185.535156 293.152344 185.359375 C 292.75 185.265625 292.347656 185.179688 291.945312 185.089844 C 291.992188 189.058594 292.039062 193.023438 292.082031 196.992188 C 292.171875 204.929688 292.039062 210.410156 291.679688 213.441406 C 291.320312 216.472656 290.566406 219.992188 289.410156 224.007812 C 288.246094 228.019531 287.265625 230.78125 286.464844 232.296875 C 285.664062 233.816406 285.039062 234.746094 284.59375 235.105469 C 284.367188 235.285156 284.144531 235.464844 283.921875 235.640625 C 283.296875 232.832031 282.675781 230.023438 282.050781 227.21875 C 280.800781 221.597656 279.597656 217.230469 278.4375 214.109375 C 277.28125 210.988281 275.898438 207.734375 274.296875 204.347656 C 272.691406 200.960938 270.726562 197.261719 268.410156 193.246094 C 266.09375 189.238281 264.085938 186.070312 262.390625 183.753906 C 260.695312 181.433594 258.734375 179.070312 256.503906 176.664062 C 254.277344 174.257812 252.808594 172.832031 252.097656 172.382812 C 251.738281 172.160156 251.382812 171.941406 251.023438 171.71875 C 251.738281 174.703125 252.453125 177.691406 253.164062 180.675781 C 254.59375 186.648438 255.746094 192.847656 256.640625 199.265625 C 257.535156 205.6875 258.292969 212.328125 258.917969 219.195312 C 259.539062 226.058594 259.851562 232.523438 259.851562 238.582031 C 259.851562 244.644531 258.109375 249.6875 254.636719 253.695312 C 251.15625 257.710938 249.242188 261.585938 248.886719 265.332031 C 248.527344 269.074219 247.90625 273.355469 247.011719 278.167969 C 246.121094 282.980469 245.050781 287.574219 243.804688 291.945312 C 242.554688 296.3125 241.171875 300.546875 239.660156 304.648438 C 238.898438 306.699219 238.140625 308.75 237.382812 310.800781 C 238.140625 310.265625 238.898438 309.730469 239.660156 309.195312 C 241.171875 308.125 243.269531 306.253906 245.941406 303.578125 C 248.617188 300.90625 252.316406 296.757812 257.042969 291.140625 C 261.769531 285.527344 266.628906 279.238281 271.617188 272.285156 C 276.609375 265.332031 281.382812 258.378906 285.929688 251.421875 C 290.476562 244.46875 293.417969 239.609375 294.757812 236.84375 C 296.089844 234.082031 297.253906 230.917969 298.234375 227.351562 C 299.214844 223.785156 299.878906 220.21875 300.238281 216.652344 C 300.597656 213.085938 300.773438 209.519531 300.773438 205.953125 C 300.773438 204.171875 300.773438 202.382812 300.773438 200.605469 C 301.753906 201.183594 302.734375 201.761719 303.714844 202.339844 C 305.679688 203.5 308.886719 205.820312 313.34375 209.296875 C 317.800781 212.773438 320.789062 215 322.304688 215.984375 C 323.820312 216.964844 324.890625 217.542969 325.515625 217.722656 C 325.824219 217.8125 326.140625 217.898438 326.449219 217.988281 C 325.691406 214.644531 324.933594 211.300781 324.175781 207.957031 C 322.664062 201.269531 321.324219 195.878906 320.164062 191.777344 C 319.007812 187.675781 317.582031 183.707031 315.882812 179.875 C 314.191406 176.042969 312.5 172.742188 310.804688 169.980469 C 309.109375 167.214844 308.265625 165.742188 308.265625 165.5625 C 308.265625 165.476562 308.265625 165.386719 308.265625 165.296875 C 308.574219 165.34375 308.886719 165.386719 309.199219 165.429688 C 309.820312 165.519531 312.5 166.5 317.222656 168.375 C 321.945312 170.246094 324.441406 171.183594 324.714844 171.183594 C 324.847656 171.183594 324.976562 171.183594 325.113281 171.183594 C 325.113281 170.960938 325.113281 170.734375 325.113281 170.511719 C 325.113281 170.066406 324.667969 168.285156 323.777344 165.164062 C 322.882812 162.042969 321.90625 157.941406 320.832031 152.863281 C 319.761719 147.777344 318.828125 143.945312 318.023438 141.359375 C 317.222656 138.773438 316.152344 135.917969 314.816406 132.800781 C 313.480469 129.679688 311.917969 126.695312 310.136719 123.839844 C 309.242188 122.414062 308.351562 120.988281 307.460938 119.558594 C 310.894531 118.800781 314.324219 118.042969 317.757812 117.289062 C 324.625 115.773438 328.234375 114.925781 328.589844 114.746094 C 328.949219 114.566406 329.125 114.300781 329.125 113.945312 C 329.125 113.585938 327.476562 112.113281 324.175781 109.53125 C 320.878906 106.945312 316.824219 103.15625 312.007812 98.164062 C 307.191406 93.167969 302.511719 88.980469 297.96875 85.589844 C 293.417969 82.203125 289.410156 78.996094 285.929688 75.964844 C 282.453125 72.929688 279.199219 70.527344 276.167969 68.742188 C 273.132812 66.957031 269.972656 65.53125 266.667969 64.464844 C 263.375 63.390625 261.632812 62.945312 261.453125 63.125 C 261.367188 63.214844 261.277344 63.304688 261.1875 63.390625 C 261.546875 63.570312 261.902344 63.75 262.257812 63.925781 C 262.96875 64.285156 264.304688 65.488281 266.269531 67.539062 C 268.234375 69.585938 271.976562 72.976562 277.503906 77.703125 C 283.03125 82.429688 287.53125 86.53125 291.011719 90.007812 C 294.488281 93.484375 297.207031 96.378906 299.167969 98.699219 C 301.128906 101.015625 303.089844 102.976562 305.054688 104.582031 C 307.015625 106.1875 307.996094 107.125 307.996094 107.390625 C 307.996094 107.65625 305.902344 108.105469 301.710938 108.730469 C 297.519531 109.351562 294.398438 109.664062 292.347656 109.664062 C 290.296875 109.664062 287.710938 109.484375 284.59375 109.128906 C 281.472656 108.773438 278.574219 108.28125 275.898438 107.65625 C 273.222656 107.03125 270.460938 106.1875 267.609375 105.117188 C 264.753906 104.046875 261.320312 102.351562 257.3125 100.035156 C 253.296875 97.71875 251.25 96.425781 251.15625 96.15625 C 251.070312 95.886719 251.648438 95.089844 252.894531 93.75 C 254.144531 92.410156 255.4375 90.496094 256.777344 88 C 258.109375 85.503906 259.09375 82.917969 259.714844 80.242188 C 260.339844 77.566406 260.652344 75.117188 260.652344 72.886719 C 260.652344 70.660156 260.429688 68.5625 259.984375 66.601562 C 259.539062 64.640625 258.78125 62.902344 257.710938 61.386719 C 256.640625 59.871094 255.527344 58.800781 254.367188 58.175781 C 253.210938 57.550781 251.78125 57.195312 250.085938 57.105469 C 248.394531 57.019531 246.257812 57.328125 243.667969 58.042969 Z M 112.746094 57.242188 C 111.496094 57.597656 110.46875 58.132812 109.667969 58.847656 C 108.867188 59.558594 108.152344 60.496094 107.527344 61.652344 C 106.90625 62.8125 106.414062 64.371094 106.058594 66.335938 C 105.699219 68.296875 105.566406 70.75 105.65625 73.6875 C 105.746094 76.632812 105.964844 78.90625 106.324219 80.507812 C 106.683594 82.113281 107.347656 84.03125 108.328125 86.261719 C 109.308594 88.488281 110.292969 90.316406 111.273438 91.746094 C 112.253906 93.167969 113.011719 94.105469 113.546875 94.550781 C 114.082031 94.996094 114.347656 95.398438 114.347656 95.753906 C 114.347656 96.113281 112.386719 97.40625 108.464844 99.632812 C 104.542969 101.863281 101.734375 103.289062 100.039062 103.914062 C 98.34375 104.539062 95.847656 105.253906 92.550781 106.054688 C 89.25 106.855469 85.371094 107.433594 80.914062 107.792969 C 76.457031 108.148438 73.246094 108.238281 71.285156 108.058594 C 69.324219 107.882812 66.875 107.433594 63.929688 106.722656 C 62.457031 106.367188 60.988281 106.007812 59.519531 105.652344 C 63.039062 102.398438 66.5625 99.144531 70.082031 95.886719 C 77.125 89.382812 81.894531 84.878906 84.390625 82.382812 C 86.886719 79.886719 89.074219 77.523438 90.945312 75.292969 C 92.816406 73.066406 95.226562 70.613281 98.164062 67.941406 C 99.636719 66.601562 101.109375 65.265625 102.582031 63.925781 C 102.488281 63.839844 102.402344 63.75 102.3125 63.660156 C 102.132812 63.480469 100.527344 63.792969 97.5 64.597656 C 94.464844 65.398438 91.34375 66.648438 88.136719 68.339844 C 84.925781 70.035156 79.488281 74.628906 71.824219 82.113281 C 64.15625 89.605469 57.914062 95.398438 53.097656 99.5 C 48.285156 103.601562 44.496094 106.589844 41.730469 108.460938 C 38.96875 110.335938 37.585938 111.359375 37.585938 111.535156 C 37.585938 111.714844 37.855469 111.9375 38.386719 112.207031 C 38.921875 112.472656 39.859375 112.828125 41.195312 113.277344 C 42.535156 113.71875 45.742188 114.121094 50.824219 114.476562 C 55.90625 114.835938 58.9375 115.191406 59.921875 115.550781 C 60.902344 115.90625 61.390625 116.214844 61.390625 116.484375 C 61.390625 116.753906 61.035156 117.242188 60.320312 117.957031 C 59.605469 118.667969 58.539062 120.09375 57.109375 122.238281 C 55.683594 124.375 54.257812 126.960938 52.832031 129.992188 C 51.402344 133.023438 50.289062 135.652344 49.488281 137.882812 C 48.683594 140.109375 47.570312 143.988281 46.144531 149.519531 C 44.714844 155.042969 43.378906 159.503906 42.132812 162.890625 C 40.882812 166.277344 40.257812 168.148438 40.257812 168.507812 C 40.257812 168.683594 40.257812 168.863281 40.257812 169.042969 C 40.394531 169.042969 40.527344 169.042969 40.660156 169.042969 C 40.929688 169.042969 41.332031 168.863281 41.863281 168.507812 C 42.398438 168.148438 44.050781 167.570312 46.8125 166.769531 C 49.578125 165.964844 52.117188 165.386719 54.4375 165.03125 C 55.597656 164.851562 56.753906 164.671875 57.914062 164.496094 C 57.914062 164.632812 57.914062 164.765625 57.914062 164.894531 C 57.914062 165.164062 56.796875 166.949219 54.570312 170.246094 C 52.339844 173.542969 50.421875 177.023438 48.816406 180.675781 C 47.214844 184.332031 45.742188 188.742188 44.40625 193.917969 C 43.070312 199.089844 42.132812 203.144531 41.597656 206.085938 C 41.0625 209.03125 40.796875 211.078125 40.796875 212.242188 C 40.796875 212.816406 40.796875 213.398438 40.796875 213.976562 C 41.285156 213.796875 41.773438 213.621094 42.265625 213.441406 C 43.246094 213.085938 45.566406 211.613281 49.21875 209.03125 C 52.875 206.441406 56.261719 204.304688 59.382812 202.609375 C 60.945312 201.761719 62.503906 200.914062 64.0625 200.070312 C 64.0625 202.210938 64.0625 204.347656 64.0625 206.488281 C 64.0625 210.769531 64.289062 214.777344 64.734375 218.523438 C 65.175781 222.269531 65.761719 225.433594 66.472656 228.019531 C 67.183594 230.605469 68.121094 233.191406 69.28125 235.777344 C 70.441406 238.363281 73.828125 244.023438 79.441406 252.757812 C 85.0625 261.496094 90.277344 269.164062 95.089844 275.761719 C 99.90625 282.355469 104.1875 287.84375 107.929688 292.210938 C 111.671875 296.578125 115.195312 300.414062 118.492188 303.714844 C 121.792969 307.011719 124.023438 309.0625 125.179688 309.863281 C 125.761719 310.265625 126.339844 310.667969 126.917969 311.070312 C 126.027344 308.300781 125.136719 305.539062 124.246094 302.777344 C 122.460938 297.25 121.035156 292.210938 119.964844 287.664062 C 118.894531 283.113281 118.050781 278.972656 117.425781 275.226562 C 116.800781 271.484375 116.355469 268.050781 116.085938 264.929688 C 115.820312 261.808594 114.125 258.46875 111.007812 254.902344 C 107.886719 251.332031 106.058594 249.015625 105.523438 247.945312 C 104.984375 246.875 104.765625 243.574219 104.851562 238.050781 C 104.945312 232.523438 105.34375 226.148438 106.058594 218.925781 C 106.769531 211.703125 107.707031 204.570312 108.867188 197.527344 C 110.027344 190.484375 111.273438 184.464844 112.609375 179.472656 C 113.277344 176.976562 113.949219 174.480469 114.617188 171.984375 C 114.484375 171.984375 114.347656 171.984375 114.214844 171.984375 C 113.949219 171.984375 112.429688 173.457031 109.667969 176.398438 C 106.90625 179.335938 104.496094 182.238281 102.449219 185.089844 C 100.394531 187.941406 98.65625 190.574219 97.230469 192.980469 C 95.800781 195.386719 93.886719 199.042969 91.480469 203.945312 C 89.074219 208.851562 87.335938 212.683594 86.261719 215.449219 C 85.195312 218.210938 84.035156 222.269531 82.785156 227.617188 C 81.539062 232.96875 80.78125 235.640625 80.515625 235.640625 C 80.246094 235.640625 79.625 234.746094 78.644531 232.96875 C 77.664062 231.183594 76.636719 228.285156 75.566406 224.273438 C 74.496094 220.261719 73.738281 216.382812 73.292969 212.640625 C 72.847656 208.894531 72.582031 203.367188 72.488281 196.054688 C 72.445312 192.402344 72.398438 188.742188 72.355469 185.089844 C 70.839844 185.847656 69.324219 186.605469 67.808594 187.363281 C 64.777344 188.878906 61.257812 191.152344 57.242188 194.183594 C 55.238281 195.699219 53.234375 197.214844 51.226562 198.730469 C 51.894531 196.769531 52.5625 194.808594 53.234375 192.847656 C 54.570312 188.925781 56.21875 184.867188 58.179688 180.675781 C 60.140625 176.484375 61.660156 173.542969 62.726562 171.851562 C 63.796875 170.15625 65.175781 168.285156 66.875 166.238281 C 68.566406 164.183594 70.527344 162.085938 72.757812 159.949219 C 74.984375 157.808594 77.703125 155.445312 80.914062 152.863281 C 84.125 150.273438 87.289062 147.914062 90.410156 145.773438 C 93.53125 143.632812 98.125 140.824219 104.1875 137.347656 C 110.246094 133.871094 114.660156 130.929688 117.425781 128.519531 C 120.1875 126.113281 121.570312 124.773438 121.570312 124.507812 C 121.570312 124.375 121.570312 124.242188 121.570312 124.109375 C 121.4375 124.109375 121.304688 124.109375 121.171875 124.109375 C 120.902344 124.109375 119.25 124.773438 116.222656 126.113281 C 113.1875 127.453125 108.421875 129.058594 101.910156 130.929688 C 95.402344 132.800781 89.382812 134.136719 83.859375 134.9375 C 78.328125 135.742188 74.453125 136.144531 72.222656 136.144531 C 71.109375 136.144531 69.992188 136.144531 68.878906 136.144531 C 68.878906 136.054688 68.878906 135.964844 68.878906 135.878906 C 68.878906 135.695312 69.859375 135.207031 71.824219 134.40625 C 73.785156 133.601562 77.039062 131.777344 81.582031 128.921875 C 86.128906 126.070312 92.015625 121.96875 99.238281 116.617188 C 106.457031 111.269531 110.46875 108.191406 111.273438 107.390625 C 112.074219 106.589844 114.347656 104.851562 118.09375 102.175781 C 121.835938 99.5 126.519531 95.933594 132.136719 91.476562 C 137.75 87.019531 141.632812 84.078125 143.769531 82.648438 C 145.910156 81.222656 147.78125 80.597656 149.386719 80.777344 C 150.992188 80.957031 153.800781 81.582031 157.8125 82.648438 C 161.824219 83.71875 166.28125 85.28125 171.1875 87.328125 C 173.636719 88.355469 176.089844 89.382812 178.539062 90.40625 C 178.496094 90.09375 178.453125 89.78125 178.40625 89.472656 C 178.320312 88.847656 178.050781 88.132812 177.605469 87.328125 C 177.15625 86.53125 176.355469 85.546875 175.195312 84.390625 C 174.039062 83.230469 172.390625 81.9375 170.25 80.507812 C 168.109375 79.085938 165.65625 77.703125 162.890625 76.367188 C 160.128906 75.027344 157.144531 73.824219 153.933594 72.753906 C 150.722656 71.683594 148.761719 71.148438 148.050781 71.148438 C 147.335938 71.148438 146.132812 71.507812 144.441406 72.21875 C 142.746094 72.929688 141.585938 72.753906 140.960938 71.683594 C 140.335938 70.613281 139.222656 69.277344 137.617188 67.671875 C 136.011719 66.066406 134.320312 64.597656 132.535156 63.257812 C 130.753906 61.921875 128.480469 60.628906 125.714844 59.382812 C 122.949219 58.132812 120.410156 57.375 118.09375 57.105469 C 115.773438 56.839844 113.992188 56.886719 112.746094 57.242188 Z M 165.703125 18.324219 C 165.703125 18.949219 166.058594 20.554688 166.773438 23.136719 C 167.128906 24.429688 167.484375 25.722656 167.839844 27.019531 C 166.414062 26.792969 164.988281 26.570312 163.5625 26.347656 C 160.710938 25.902344 156.785156 25.5 151.796875 25.144531 C 146.800781 24.789062 141.941406 24.65625 137.214844 24.742188 C 132.492188 24.832031 128.300781 25.234375 124.648438 25.945312 C 120.988281 26.660156 117.914062 27.460938 115.417969 28.355469 C 112.921875 29.246094 110.160156 30.539062 107.125 32.234375 C 104.09375 33.925781 101.019531 36.109375 97.898438 38.785156 C 94.78125 41.460938 92.726562 43.421875 91.746094 44.667969 C 90.765625 45.917969 90.097656 46.988281 89.742188 47.878906 C 89.5625 48.324219 89.382812 48.769531 89.207031 49.21875 C 89.875 49.125 90.546875 49.039062 91.210938 48.949219 C 92.550781 48.769531 95.9375 47.878906 101.375 46.273438 C 106.816406 44.667969 111.804688 43.554688 116.355469 42.929688 C 120.902344 42.304688 125.269531 42.039062 129.460938 42.128906 C 133.652344 42.21875 137.574219 42.664062 141.230469 43.464844 C 144.882812 44.269531 148.003906 45.160156 150.589844 46.140625 C 153.175781 47.121094 155.273438 48.058594 156.875 48.949219 C 158.480469 49.839844 160.085938 50.910156 161.691406 52.160156 C 163.292969 53.40625 165.390625 55.503906 167.976562 58.445312 C 170.5625 61.386719 173.371094 65.398438 176.398438 70.480469 C 179.433594 75.5625 181.082031 78.058594 181.347656 77.96875 C 181.617188 77.878906 181.707031 77.480469 181.613281 76.765625 C 181.527344 76.050781 181.082031 74.136719 180.28125 71.015625 C 179.476562 67.894531 178.71875 65.441406 178.003906 63.660156 C 177.292969 61.875 176.179688 59.648438 174.660156 56.972656 C 173.148438 54.300781 171.542969 51.9375 169.847656 49.882812 C 168.15625 47.835938 166.234375 45.828125 164.097656 43.867188 C 161.957031 41.90625 159.015625 39.8125 155.273438 37.582031 C 151.527344 35.351562 149.566406 34.0625 149.386719 33.703125 C 149.296875 33.523438 149.210938 33.347656 149.117188 33.167969 C 150.589844 33.300781 152.0625 33.4375 153.535156 33.570312 C 156.472656 33.839844 160.355469 34.503906 165.167969 35.578125 C 169.980469 36.644531 173.054688 37.222656 174.394531 37.316406 C 175.0625 37.359375 175.730469 37.402344 176.398438 37.449219 C 176 35.621094 175.597656 33.792969 175.195312 31.964844 C 174.796875 30.136719 174.394531 28.308594 173.996094 26.480469 C 177.292969 26.527344 180.589844 26.570312 183.890625 26.617188 C 187.1875 26.660156 190.488281 26.703125 193.785156 26.75 C 193.609375 28 193.429688 29.246094 193.25 30.496094 C 192.894531 32.992188 192.761719 34.820312 192.851562 35.976562 C 192.9375 37.136719 193.832031 37.671875 195.523438 37.582031 C 197.21875 37.492188 200.25 37.089844 204.617188 36.378906 C 208.988281 35.664062 212.019531 35.308594 213.710938 35.308594 C 214.558594 35.308594 215.40625 35.308594 216.253906 35.308594 C 214.203125 36.734375 212.152344 38.160156 210.101562 39.585938 C 206 42.441406 202.523438 45.382812 199.671875 48.414062 C 196.820312 51.445312 194.722656 53.941406 193.382812 55.90625 C 192.050781 57.863281 190.800781 60.046875 189.640625 62.457031 C 188.484375 64.863281 187.5 67.761719 186.699219 71.148438 C 186.296875 72.84375 185.894531 74.535156 185.496094 76.230469 C 185.804688 76.007812 186.121094 75.785156 186.429688 75.5625 C 187.054688 75.117188 188.660156 72.929688 191.246094 69.007812 C 193.832031 65.085938 196.371094 61.832031 198.867188 59.246094 C 201.367188 56.660156 203.949219 54.433594 206.625 52.5625 C 209.300781 50.6875 212.285156 49.082031 215.585938 47.746094 C 218.882812 46.40625 222.003906 45.425781 224.945312 44.800781 C 227.890625 44.175781 230.386719 43.777344 232.433594 43.601562 C 234.488281 43.421875 238.007812 43.421875 243 43.601562 C 247.992188 43.777344 252.226562 44.175781 255.707031 44.800781 C 259.183594 45.425781 263.730469 46.722656 269.347656 48.683594 C 272.15625 49.664062 274.964844 50.640625 277.773438 51.621094 C 277.148438 50.332031 276.523438 49.039062 275.898438 47.746094 C 274.652344 45.160156 273.046875 42.839844 271.085938 40.792969 C 269.121094 38.742188 266.851562 36.824219 264.265625 35.039062 C 261.679688 33.257812 258.691406 31.652344 255.304688 30.226562 C 251.917969 28.796875 248.082031 27.683594 243.804688 26.882812 C 239.523438 26.078125 235.246094 25.679688 230.964844 25.679688 C 226.6875 25.679688 220.53125 26.167969 212.507812 27.152344 C 208.496094 27.640625 204.484375 28.132812 200.472656 28.621094 C 200.875 26.925781 201.277344 25.234375 201.675781 23.539062 C 202.078125 21.84375 202.476562 20.152344 202.882812 18.457031 C 198.957031 18.546875 195.035156 18.636719 191.113281 18.726562 C 183.265625 18.902344 177.070312 18.726562 172.523438 18.191406 C 170.25 17.921875 167.976562 17.65625 165.703125 17.386719 C 165.703125 17.703125 165.703125 18.011719 165.703125 18.324219 " fill-opacity="1" fill-rule="nonzero"/></g></svg>